<svg xmlns="http://www.w3.org/2000/svg" stroke-linejoin="round" class="ng-scope" version="1.1" viewBox="0 0 100 48" xml:space="preserve"><path fill="#fff" d="M95.4 40.4C95 40 94.5 39.8 94.3 39.2 94 38.4 94.1 37.4 93.3 36.9 92.6 36.7 91.9 36.9 91.4 36.3 91.1 36.1 91 35.7 91.1 35.3 91.5 34.3 91.8 33.3 91.5 32.2 91.6 31.8 91.2 31.4 91.5 31.1 92.8 31.5 94.5 31.6 95.7 30.9 96.8 30.2 97.5 29.1 97.5 27.8 97.2 25.9 95.9 24.4 94.5 23.1 94.3 22.9 94.2 22.8 94.2 22.5 94.2 22.4 94.2 22.2 94.4 22.1 95.2 22.1 95.9 22 96.6 21.7 97.8 21 98.1 19.7 97.9 18.4 97.9 18.4 97.9 18.2 97.8 18.2 97.5 18.5 97.1 18.8 96.7 18.9 95.2 19.1 93.8 19.5 92.7 20.7 92.3 21.1 92.3 21.9 92.6 22.5 93.6 24.2 95.7 25.3 96.2 27.2 96.5 28.1 96.1 28.8 95.5 29.3 94.5 30 93.1 29.8 92.2 29.3 89.9 28.2 87.9 26.1 85.4 25.5 83.9 25.3 82.7 24.6 81.5 23.6 80.6 22.9 79.3 22.7 78.2 22.3 77.2 21.2 76 20.7 74.7 20.1 74 19.8 73.2 19.9 72.5 19.3 72.1 18.7 71.5 18.2 71 17.8 70.1 17.3 68.7 16.9 67.8 17.4 67.7 17.5 67.6 17.6 67.6 17.6 65.6 14.3 62.7 11.5 59.1 9.8L59.1 1.1 45.9 3.9 45.9 8.2C40.4 9.4 35.8 12.9 33 17.4 32.4 17.4 31.7 17.5 31.1 17.8 29.5 19.2 27.6 19.6 25.8 20.4 24.8 20.9 24.2 22.1 23.1 22.6 21.7 22.6 20.5 22.9 19.5 23.8 18.7 24.8 17.7 25.6 16.5 25.7 14.4 25.8 12.7 26.7 11.2 28.2 9.7 29.1 8.3 30.4 6.4 30 5.7 29.8 4.9 29.1 4.7 28.4 4.2 26.9 5.2 25.7 6.3 24.7 7.4 23.8 8.9 22.8 8.6 21.2 8.3 19.7 6.7 19.5 5.7 19.3 4.5 19.3 3.6 18.6 2.7 18 2.4 18.3 2.3 18.7 2.4 19.2 2.5 20.3 3.4 21.4 4.4 21.7 5.1 22.1 6 21.5 6.6 22 6.8 22.2 6.7 22.4 6.7 22.6 5.4 23.8 3.5 25.1 3.2 26.9 2.9 28.3 3.4 29.7 4.6 30.6 5.8 31.6 7.8 31.8 9.2 31.2 9.4 31.1 9.6 31.1 9.8 31.3L10 33.3C10.1 34.3 10.8 34.9 10.7 35.8 10.2 36.4 9.6 36.6 9 36.9L7.6 37.1C7.2 37.4 7 37.9 6.9 38.4 6.8 39.4 5.6 40 4.9 40.6 4.7 41.1 4.1 41.8 3.5 41.8 3 42.4 2.9 43.2 2.8 43.8 3.4 43.9 4.1 44.1 4.8 44 5.6 43.8 5.7 42.9 6.2 42.2 6.7 41.6 7.5 42.3 8.1 42.1 8.9 41.7 9.7 41.2 10.4 40.4 11.9 39.6 13.8 40.9 15.2 40 15.8 39.2 16.9 39.4 17.4 38.4 17.6 37.7 18.2 37.1 18.4 36.3 18.2 36.1 18 36 17.9 35.9 17.7 36.2 17.5 36.5 17.3 36.9 16.4 38.4 14.7 38.8 13.1 39 11 38.9 9 39.4 7.6 41.1L7.4 41.1C7.4 41.1 7.3 41 7.3 41 8 39.6 9.3 38.7 10.8 38.5 13 38.3 15.5 38.3 16.8 36.1 17.5 34.9 17.3 33.3 17.6 31.9 17.6 31.7 17.8 31.6 17.9 31.6 18 31.7 18.2 31.7 18.2 31.8 18 32.9 17.9 34.1 18.3 35.2 19 36.1 20.4 35.5 21.3 35.4 23.1 35 24.6 35.9 26.5 35.5 26.6 35.5 26.9 35.3 26.8 35.1 26.7 34.7 26.5 34.4 26.5 33.9 26.6 33.7 26.7 33.7 26.9 33.7 27.1 33.8 27.1 34.1 27.2 34.4 27.9 36.4 30.9 36.3 31.1 38.8 30.9 39.7 29.9 40.1 29.2 40.2 27.7 40.5 27.4 38.8 26.5 38 25.8 37.5 24.9 37.9 24.1 38 23.9 38.1 23.9 38.2 23.9 38.5L24.7 39.9C25.1 40.6 25.9 39.8 26.2 40.5 26.5 41.2 27.3 42.1 28.1 42.1 29.5 41.8 30.7 41.3 31.9 40.7 32.4 40.1 33.3 40.5 33.9 40.1 34.1 40.1 34.2 39.9 34.3 39.8 38 44.6 43.8 47.7 50.3 47.7 57 47.7 63 44.4 66.7 39.3 66.7 39.4 66.8 39.5 66.8 39.6 67 40.4 67.7 39.9 68.3 40.1 68.9 41.2 70.1 41.1 71 41.5 71.7 41.7 72.4 42.1 73.1 42.1 73.9 41.8 74.3 41 74.4 40.3 74.6 40 75.2 40.2 75.5 39.9 75.8 39.4 76.3 39 76.5 38.4 76.1 38 75.5 38.2 75 38.1 74.9 38.2 74.7 38.2 74.6 38.2L74.6 38.1C73.6 38 73.5 39.2 73.1 39.9 72.8 40.1 72.5 40.1 72.3 40.1 71.4 39.8 70.1 39.7 70 38.4 70.3 37.7 71.1 37.1 71.7 36.6 72.4 36.4 73.1 36.1 73.5 35.4 73.9 35.1 73.8 34.3 74.4 34.3 74.7 34.8 74.4 35.4 74.2 35.8 75.4 36 76.6 35.7 77.7 35.6 79.5 35.2 81.1 36.2 82.8 35.5 83.7 35.1 83.7 34.2 83.8 33.3L83.7 33.2 83.8 33.2C83.8 32.7 83.7 32.4 83.7 32 83.7 31.8 83.6 31.5 83.7 31.3 83.8 31.3 83.9 31.3 84 31.4 84.7 33 84.4 35 85.2 36.4 85.9 37.7 87.1 38.5 88.5 38.6 88.5 38.6 88.5 38.5 88.6 38.6 90.8 38.1 92.7 39.1 94.1 40.7L94.1 40.8C94 40.9 93.9 41 93.8 41 93.5 40.7 93.2 40.5 92.9 40.3 91.7 39.1 89.9 39 88.2 39.2 86.5 39.3 84.8 37.8 84.3 36.2 84.1 36.1 84.1 35.8 83.9 35.8 83.8 35.9 83.8 35.9 83.7 36 83.8 37.1 83.9 38.3 84.8 39.1 85.5 39.5 86.1 40.2 87 40.3 88.2 39.9 89.6 40.1 90.7 40.6 91.5 40.9 92.2 41.6 93 42.1 93.4 42.4 94 42.2 94.4 42 95.4 41.7 95.5 42.8 96.2 43.3 96.8 43.7 97.6 43.5 98.3 43.6L98.4 43.5C98.3 42.9 98.1 42.2 97.9 41.6 96.3 41.9 95.9 41 95.4 40.4M67.9 21.4C68.2 21.4 68.4 21.4 68.5 21.6 68.7 22 68.1 22.3 67.9 22.6 67 23.3 66.1 24.1 65.7 25.1L65.6 25.1C65.5 23.6 66.6 22.3 67.9 21.4M46.9 7L57.6 4.9 57.6 9.4C55.3 8.4 52.7 7.9 50 7.9 48.9 7.9 47.9 8 46.9 8.1ZM33.2 23C33.4 23 33.5 22.9 33.6 23 34 23.2 34.2 23.6 34.3 24 34.5 24.7 34.5 25.6 34.4 26.3L34.3 26.4C34.1 26.2 34.1 25.9 34.1 25.8 34 24.9 33.6 24.1 33.1 23.4 33.1 23.2 33.1 23 33.2 23M69.3 35.4L67.8 37.3 67.6 37.8C67.4 38.2 67.5 38.8 67.5 39.3 67.1 39.1 67.1 38.7 67.1 38.2 66.8 36.8 68.1 36 68.6 34.9 68.2 34.8 68 34.6 67.6 34.5 66.9 35.4 66.4 36.4 65.9 37.5 65.8 37.8 65.9 38.1 65.9 38.4 62.5 43.6 56.6 47.1 49.9 47.1 43.5 47.1 37.9 43.9 34.5 39.2 34.7 38.7 35 38.3 34.9 37.8 34.9 37 34.2 36.5 33.9 35.9 33.7 35.5 33.6 35.2 33.4 34.8 33 34.6 32.6 34.5 32.2 34.8 32.7 35.9 33.3 36.8 33.7 37.7 33.8 38.6 33.4 39.2 32.8 39.9 32.7 39.9 32.6 39.9 32.6 39.8 32.7 39.2 33 38.6 33 37.9 32.4 36.8 31.6 35.7 31.1 34.6 31.1 34.4 31.1 34.3 31.4 34.2 31.9 33.9 32.7 34 33.1 33.6 33.7 32.6 34.1 31.6 34.1 30.6 34.2 30.5 34.3 30.4 34.4 30.5 34.5 30.6 34.5 30.6 34.5 30.7 34.8 32 34.4 33 33.8 34 33.7 34.1 33.8 34.2 33.9 34.3 34.3 34.5 34.8 34.3 35.2 34.2 35.9 33.7 37 33.9 37.9 33.6 37.9 33.7 38 33.7 38 33.8 37.6 34.3 37.3 34.9 37.3 35.5 36.8 36.1 36 36.5 36 37.3 36.2 37.6 36.4 37.3 36.6 37.3 36.8 37.3 36.8 37.5 36.8 37.6 36.6 38 36.2 38.2 36.2 38.7 36.4 39.2 36.2 40 36.9 40.1 38.3 40.4 39.5 39.2 41 39.3 42.1 39.6 43.1 39.1 43.9 38.2 44.1 38.1 44.3 38.3 44.4 38.3 45.2 39.1 46.3 39.7 47.4 39.8 47.7 39.9 48.1 39.9 48.4 39.8 48.5 39.8 48.4 39.6 48.4 39.5 47.6 39.2 46.8 38.7 46.1 38 45.8 37.1 45.4 36.1 44.7 35.4 44.6 35.3 44.6 35.2 44.7 35.1 45.4 35.3 46.1 36.1 46.5 36.8 47.1 37.7 48.1 38.6 49.3 38.4 49.5 38.4 49.7 38.4 49.6 38.2 47.7 37.7 47.5 35.6 46 34.5 45.3 32.8 44.7 30.9 44.3 29.1 44.3 27.3 43.3 25.9 42.2 24.6 40.5 22 37.8 20.5 35.6 18.6L34.9 18.2C34.6 18.1 34.3 17.9 33.9 17.9 36.6 13.7 40.8 10.6 45.8 9.5L45.8 15.9C45.4 15.7 45.3 15.7 45.1 15.7 42.8 15.7 40.8 17.8 40.8 19.2 40.8 20.1 41.5 20.7 42.5 20.7 43.6 20.7 45 20.1 45.9 19.1 46.7 18.3 47 17.4 47 15.9L47 9.2C48 9 49 8.9 50 8.9 52.7 8.9 55.3 9.5 57.7 10.5L57.7 13C57.4 12.9 57.2 12.9 57 12.9 54.7 12.9 52.7 15 52.7 16.3 52.7 17.3 53.5 17.8 54.5 17.8 55.6 17.8 56.9 17.3 57.9 16.3 58.7 15.5 58.9 14.6 58.9 13.1L58.9 11C62.1 12.7 64.7 15.2 66.6 18.4 64.1 20.3 61.4 21.7 59.2 23.9 57.6 25.3 56.8 27.1 56.2 29 55.1 32.4 54.8 36.4 51.3 38.4 51.3 38.5 51.3 38.6 51.4 38.7 52.1 38.8 53 38.7 53.6 38 54.1 37.1 54.8 36.3 55.5 35.6L55.7 35.6C56 35.7 55.7 35.9 55.7 36.1 54.7 37.1 54.6 38.6 53.2 39.4 53 39.6 52.7 39.8 52.9 39.9 54.5 40.1 55.6 38.9 56.7 38L56.9 38C57.5 38.4 58 39.2 58.8 39 60.5 38.5 61.6 39.6 62.8 40.1 63.2 40.2 63.5 39.9 63.8 39.7 64.3 39.3 64.1 38.6 64 38L64.1 37.9C64.3 37.9 64.7 38.2 64.9 37.8 65 37.1 64.3 36.6 64 35.9 63.8 34.8 62.4 34 62.3 32.9 62.4 32.8 62.4 32.7 62.4 32.7 63 33 63.5 33.6 64 33.9 64.9 34.3 65.8 34.3 66.8 34.3 67 34.3 67 34.2 67 34 66.4 32.9 66.1 31.7 66.1 30.2 66.2 29.9 66.1 29.2 66.5 29 66.7 29 66.7 29.2 66.8 29.2 66.8 30.5 66.8 31.8 67.4 32.8 67.7 33.6 68.5 34 69.1 34.5 69.4 34.7 69.5 35.1 69.3 35.4M41.7 30.9C41.6 30.8 41.3 30.8 41.2 31L40.6 31.7C40.3 31.5 40.5 31.2 40.5 31.1 40.7 30.5 40.9 30.1 41.2 29.5 41.2 29.3 41.5 29.4 41.6 29.4 42.2 29.8 42.3 30.5 42.9 30.9 43.4 31.5 43.6 32.4 43.2 33.1 43.1 33.1 43 33.3 42.9 33.1 42.9 32.2 42.4 31.4 41.7 30.9M40.5 36.8C40.8 36.6 41.1 36.2 41.6 36.4L41.7 36.7C41.7 37 41.6 37.1 41.5 37.4 41.1 37.5 40.7 37.6 40.3 37.5 40.2 37.2 40.4 37.1 40.5 36.8M60.4 31.5C60.4 31.4 60.4 31.3 60.2 31.2 59.7 31 59.3 31.5 58.9 31.8 58.3 32.2 58 32.8 57.8 33.4 57.8 33.5 57.7 33.5 57.6 33.5 57.3 33.2 57.6 32.8 57.6 32.4 57.9 31.3 59.2 30.7 59.8 29.7 60.4 29.7 60.5 30.4 60.9 30.8 61 31.1 61.3 31.5 61 31.8 60.8 31.8 60.5 31.6 60.4 31.5M60.5 37.5C60.3 37.6 59.9 37.5 59.7 37.5 59.4 37.3 59.4 36.9 59.3 36.7 59.4 36.6 59.3 36.4 59.5 36.4 59.9 36.4 60.2 36.6 60.4 36.9 60.5 37 60.7 37.2 60.5 37.5M29.6 39.2C29.7 39.1 29.5 38.9 29.4 38.8 29.3 38.4 29.2 38 29 37.7 28.5 37.7 27.9 37.7 27.5 37.8L27.5 37.7C27.3 37.8 27.2 37.7 27 37.8 26.9 37.9 26.9 38 26.9 38 27.5 38.4 27.7 39.1 28 39.7 28.6 40 29.1 39.5 29.6 39.2M72.4 38C72.2 38 72 38 71.9 38 71.6 37.9 71.3 38 71 37.9 70.7 38.3 70.5 38.7 70.6 39.1 70.8 39.4 71.2 39.4 71.4 39.6 71.7 39.6 72.1 39.8 72.3 39.5 72.4 39.1 72.6 38.6 72.7 38.1 72.6 38 72.5 38 72.4 38M2.5 41C2.9 41.2 3.2 40.9 3.6 40.6 3.8 40.2 4.1 39.9 4.2 39.5 4.1 39.3 3.7 39 3.5 39.1 3.1 39.8 1.8 39.8 2.2 40.7 2.3 40.9 2.4 41 2.5 41M96.7 39.1L96.5 39.1C96.3 39.3 95.9 39.4 96 39.7 96.4 40.2 96.6 41 97.3 41.1 97.6 41 97.9 41 98 40.7 98 40.5 98.1 40.3 98 40.1ZM1.1 41.3C0.5 41.6 0.6 42.1 0.6 42.8 0.6 43.1 0.2 43.3 0.2 43.7 0.6 43.9 0.9 44 1.4 44.1 1.6 43.4 1.8 42.7 2 41.9L1.4 41.3C1.3 41.2 1.2 41.3 1.1 41.3M99.4 41.8C99.2 41.6 99.1 41.4 98.8 41.2 98.4 41.1 98.2 41.5 98.1 41.7 98 42.3 98.3 42.8 98.4 43.3 98.4 43.5 98.4 43.9 98.6 44.1L99.7 43.8 99.8 43.5C99.3 43 99.6 42.3 99.4 41.8" class="bg-color-primary--svg main-nav-bg-color"/></svg>