<svg xmlns="http://www.w3.org/2000/svg" xmlns:xlink="http://www.w3.org/1999/xlink" version="1.1" x="0px" y="0px" viewBox="0 0 100 125" enable-background="new 0 0 100 100" xml:space="preserve"><g><path d="M57.25,34c-0.967,0-1.75,0.784-1.75,1.75v28.5c0,0.966,0.783,1.75,1.75,1.75S59,65.216,59,64.25v-28.5   C59,34.784,58.217,34,57.25,34z" fill="white"/><path d="M42.75,34C41.783,34,41,34.784,41,35.75v28.5c0,0.966,0.783,1.75,1.75,1.75s1.75-0.784,1.75-1.75v-28.5   C44.5,34.784,43.717,34,42.75,34z" fill="white" /><path d="M50,5C25.147,5,5,25.147,5,50s20.147,45,45,45s45-20.147,45-45S74.853,5,50,5z M50,91.5C27.08,91.5,8.5,72.92,8.5,50   C8.5,27.08,27.08,8.5,50,8.5S91.5,27.08,91.5,50C91.5,72.92,72.92,91.5,50,91.5z" fill="white" /></g></svg>