<svg xmlns="http://www.w3.org/2000/svg" xmlns:xlink="http://www.w3.org/1999/xlink" version="1.1" x="0px" y="0px" viewBox="0 0 100 125" enable-background="new 0 0 100 100" xml:space="preserve"><path d="M44.166,34.62c-0.683-0.683-1.791-0.683-2.475,0c-0.683,0.683-0.683,1.791,0,2.475L54.596,50L41.691,62.905  c-0.683,0.683-0.683,1.792,0,2.475c0.683,0.683,1.792,0.683,2.475,0l14.142-14.142c0.683-0.683,0.683-1.791,0-2.475L44.166,34.62z" fill="white"/><path d="M50,5C25.147,5,5,25.147,5,50s20.147,45,45,45s45-20.147,45-45S74.853,5,50,5z M50,91.5C27.08,91.5,8.5,72.92,8.5,50  C8.5,27.08,27.08,8.5,50,8.5S91.5,27.08,91.5,50C91.5,72.92,72.92,91.5,50,91.5z" fill="white" /></svg>