<svg xmlns="http://www.w3.org/2000/svg" xmlns:xlink="http://www.w3.org/1999/xlink" x="0" y="0" enable-background="new 0 0 100 100" version="1.1" viewBox="0 0 100 125" xml:space="preserve"><path fill="#fff" d="M44.166,34.62c-0.683-0.683-1.791-0.683-2.475,0c-0.683,0.683-0.683,1.791,0,2.475L54.596,50L41.691,62.905 c-0.683,0.683-0.683,1.792,0,2.475c0.683,0.683,1.792,0.683,2.475,0l14.142-14.142c0.683-0.683,0.683-1.791,0-2.475L44.166,34.62z"/><path fill="#fff" d="M50,5C25.147,5,5,25.147,5,50s20.147,45,45,45s45-20.147,45-45S74.853,5,50,5z M50,91.5C27.08,91.5,8.5,72.92,8.5,50 C8.5,27.08,27.08,8.5,50,8.5S91.5,27.08,91.5,50C91.5,72.92,72.92,91.5,50,91.5z"/></svg>